<?xml version="1.0" encoding="UTF-8" standalone="no"?>
<svg
   viewBox="0 0 1200 1200"
   version="1.1"
   id="svg4"
   sodipodi:docname="MLWX-Logo_black.svg"
   inkscape:version="1.4.3 (0d15f75042, 2025-12-25)"
   inkscape:export-filename="MLWX-Logo-gray.png"
   inkscape:export-xdpi="96"
   inkscape:export-ydpi="96"
   width="1200"
   height="1200"
   xmlns:inkscape="http://www.inkscape.org/namespaces/inkscape"
   xmlns:sodipodi="http://sodipodi.sourceforge.net/DTD/sodipodi-0.dtd"
   xmlns="http://www.w3.org/2000/svg"
   xmlns:svg="http://www.w3.org/2000/svg">
  <defs
     id="defs4" />
  <sodipodi:namedview
     id="namedview4"
     pagecolor="#ffffff"
     bordercolor="#000000"
     borderopacity="0.25"
     inkscape:showpageshadow="2"
     inkscape:pageopacity="0.0"
     inkscape:pagecheckerboard="0"
     inkscape:deskcolor="#d1d1d1"
     inkscape:zoom="0.45703683"
     inkscape:cx="321.6371"
     inkscape:cy="761.4266"
     inkscape:window-width="1728"
     inkscape:window-height="1083"
     inkscape:window-x="0"
     inkscape:window-y="0"
     inkscape:window-maximized="1"
     inkscape:current-layer="svg4"
     inkscape:export-bgcolor="#ffffff00" />
  <path
     d="m 660,660.00001 v 64 l 96,96 -96,96 V 980 h 64 l 95.99999,-96 95.99999,96 H 980 V 916 L 883.99999,820 980,724 V 660 H 915.99998 L 819.99999,756.00001 724,660 Z"
     id="path1"
     style="fill:#000000;stroke-width:0.853332"
     inkscape:label="X" />
  <path
     d="M 220,660 V 980 H 540 V 660 H 454.66666 V 841.76 L 380,799.09334 305.33334,841.76 V 660 Z"
     id="path4"
     style="fill:#000000;stroke-width:0.853332"
     inkscape:label="W" />
  <path
     d="M 660,220 V 540 H 724 915.99998 980 V 454.66666 H 745.33333 V 220 Z"
     id="path3"
     style="fill:#000000;stroke-width:0.853332"
     inkscape:label="L" />
  <path
     d="M 220,540 V 220 H 540 V 540 H 454.66668 V 358.24 L 380,400.90667 305.33332,358.24 V 540 Z"
     id="path2"
     style="fill:#000000;stroke-width:0.853333"
     inkscape:label="M" />
</svg>
